# xmcd
#
# Track frame offsets:
#	150
#	15636
#	33648
#	55013
#	73947
#	95310
#	109580
#	128764
#	144653
#	159607
#
# Disc length: 2389 seconds
#
# Revision: 1
# Processed by: cddbd v1.5.2PL0 Copyright (c) Steve Scherf et al.
# Submitted via: audiograbber 1.83.01
#
DISCID=8509530a
DTITLE=The Parish Family - Following the Man
DYEAR=2005
DGENRE=Gospel
TTITLE0=Through the Fire
TTITLE1=My Shepherd
TTITLE2=Drinking from a Saucer
TTITLE3=Following the Man
TTITLE4=Redeemer
TTITLE5=I've Never Been this Homesick Before
TTITLE6=I Sure Miss You
TTITLE7=Vision of Jordan
TTITLE8=Don't You Wanna
TTITLE9=The Lighthouse
EXTD=
EXTT0=
EXTT1=
EXTT2=
EXTT3=
EXTT4=
EXTT5=
EXTT6=
EXTT7=
EXTT8=
EXTT9=
PLAYORDER=
